<svg width="21" height="22" viewBox="0 0 21 22" fill="none" xmlns="http://www.w3.org/2000/svg">
<path fill-rule="evenodd" clip-rule="evenodd" d="M10.0948 0.90918C12.788 0.910282 15.3251 1.96239 17.2289 3.86732L16.4573 4.63849C14.7579 2.93813 12.4982 2.00107 10.0944 2.00009C5.13177 2.00009 1.09288 6.03568 1.09091 10.9961C1.09021 12.696 1.56608 14.3516 2.46697 15.7842L2.62683 16.038L1.66673 19.5426L5.26129 18.6003L5.50657 18.7458C6.88818 19.5655 8.47221 19.9992 10.091 20.0001C15.0514 20.0001 19.0888 15.9641 19.0909 11.0034C19.0915 8.59906 18.1563 6.3387 16.4573 4.63849L17.2289 3.86732C19.1325 5.77224 20.1825 8.31017 20.1818 11.0036C20.1795 16.5667 15.6538 21.091 10.091 21.091H10.0904C8.33508 21.0901 6.61426 20.6347 5.09891 19.7706L0.115251 21.0771L1.44841 16.2107C0.499217 14.6392 -0.000757634 12.8396 8.61735e-07 10.9957M10.0948 0.90918C4.53034 0.90918 0.00221672 5.4325 8.61735e-07 10.9957L10.0948 0.90918Z" fill="#25D366"/>
<path fill-rule="evenodd" clip-rule="evenodd" d="M7.23527 5.84544C7.02792 5.39807 6.80961 5.38914 6.61241 5.38136C6.45105 5.37458 6.26637 5.37501 6.08198 5.37501C5.89744 5.37501 5.59753 5.44227 5.3439 5.71112C5.0902 5.9799 4.375 6.62963 4.375 7.95109C4.375 9.27277 5.367 10.5498 5.50526 10.7292C5.64366 10.9082 7.4201 13.7068 10.2335 14.7835C12.5716 15.6782 13.0474 15.5003 13.555 15.4555C14.0624 15.4107 15.1926 14.8058 15.4232 14.1786C15.6539 13.5515 15.6539 13.014 15.5847 12.9015C15.5155 12.7896 15.3309 12.7225 15.0541 12.5882C14.7773 12.4539 13.4165 11.8039 13.1628 11.7144C12.909 11.6249 12.7245 11.5802 12.5399 11.849C12.3553 12.1176 11.8252 12.7225 11.6637 12.9015C11.5022 13.0811 11.3407 13.1036 11.0639 12.9692C10.7871 12.8344 9.89562 12.5511 8.83813 11.6361C8.01529 10.9242 7.45976 10.045 7.29825 9.77605C7.13682 9.50742 7.28096 9.36189 7.41981 9.228C7.54408 9.10768 7.69661 8.91445 7.83502 8.75757C7.97313 8.60076 8.01933 8.48886 8.1116 8.30977C8.20387 8.1304 8.15774 7.97352 8.0885 7.8392C8.01933 7.70488 7.48139 6.37649 7.23527 5.84544Z" fill="#25D366"/>
</svg>
